<svg xmlns="http://www.w3.org/2000/svg" enable-background="new 0 0 50 50" viewBox="0 0 50 50" id="fairy-dance">
  <path d="M23.7225,25.6523c0,0-0.8783,3.1697-4.7354,4.3535c0,0-0.0764,3.0551-0.4583,4.0098c0,0,1.4512,1.9094,0.3819,4.9646
		c0,0-0.4965,3.2842-1.1839,4.1626c0,0,0.2673,0.1528,0.4201,1.0311c0,0,0.5728,0.6492,0,1.1457c0,0-0.9165,0.9547-0.8783,1.413
		c0,0,0.3437,2.024-0.3437,2.1768c0,0-1.3748,0.5346-1.413-0.9929c0,0-0.7638-0.9929,0.1528-1.222c0,0-0.3055-2.2913,0.3437-2.9405
		c0,0,0.4965-4.1626,0.4583-4.85c0,0,0.0382-4.3153-0.1146-5.0027c0,0-0.3055-2.2913-0.1528-2.826c0,0-3.437,1.2984-5.0027,0
		c0,0-0.9547-1.4894-0.6874-2.5968c0,0,1.222-3.8189,2.9024-5.0791c0,0,0.3055-0.5728-0.4583-0.9929c0,0-1.7467-1.4185-1.6258-2.482
		c0,0-1.1843-1.1118,0.2417-2.2719c0,0,0.29-0.9668,0.7251-1.3293c0,0-0.7734-2.151-0.4592-2.9244c0,0-0.3142-0.6767,0.0483-1.0634
		c0,0-0.4109-1.3051-0.5559-1.5952c0,0-0.0483,0.435-0.1208,0.5317c0,0-1.3535-1.4018-0.29-2.9486c0,0-0.2417-0.1692-0.4592-0.1692
		c0,0,0.4592-0.6284,0.9668-0.6284c0,0,0.2175-2.7069,0-2.9486c0,0-0.7009-1.3051-1.2326-1.3776c0,0-1.0876-0.3625-0.8459-1.1359
		c0,0,0.8943,0.3384,1.1601,0.2175c0,0-0.435-1.0634-0.0725-1.281c0,0,1.0393,1.716,1.426,1.8852c0,0,0.4592,1.3535,0.6526,1.4743
		c0,0,0.6767,0.1208,0.5559,0.6767c0,0-0.3142,0.3867-0.5075,0.3867c0,0,0.1934,1.7885,0.1208,2.006
		c0,0,2.8519,0.1208,3.0453,0.5317c0,0,3.4803-4.6888,4.3746-5.148c0,0,1.4743,3.1903,0.9184,6.4773
		c0,0,5.4951-3.9644,8.0164-3.9021c0,0-1.7742,6.7546-2.5835,8.3109l0.2179-0.0311c0,0-0.1556-0.9649,0.8093-0.7159
		c0,0,0.2801,0.2179,0.3113,0.5914c0,0,3.3812,0.3953,3.5446,1.1424c0,0,0.0233,0.2802-0.1868,0.2802
		c0,0,0.1634,0.2801-0.3268,0.3735c0,0,0.1167,0.2335-0.3735,0.1634c0,0-0.8405-0.5836-1.0506-0.8871c0,0,0.07,0.4202,0.2568,0.5136
		c0,0-0.0467,0.6303-0.5136,0.2568c0,0-1.214-0.4903-1.3541-0.9805c0,0-2.1478,1.1906-2.5447,1.1439c0,0-1.644,3.545-7.7324,4.0721
		c0,0-0.4744,1.2915-0.2636,1.2915c0,0,1.2124-0.2636,1.845-0.1845c0,0,2.5566-0.7907,3.4527-0.5271c0,0,1.5287,0.3954,1.5814,2.293
		c0,0,2.3721-0.0527,3.7954-0.4217c0,0,2.8729-0.8171,6.5628-0.6326c0,0,0.8434-0.3426,1.476-0.2372
		c0,0,1.4496-0.5271,1.7395-0.8171c0,0,1.4233-1.2124,2.5566-0.6589c0,0,0.738,0.6062,0.2899,1.1597
		c0,0-1.7923,1.3706-2.4248,1.3706c0,0-0.738,0.1054-0.738,0.2899c0,0-1.8713,0.1581-2.1613,0c0,0-3.1365,1.0279-3.3737,1.2388
		c0,0-3.4527,0.7116-4.0326,0.6589C27.8149,24.4447,24.1634,25.6476,23.7225,25.6523z"></path>
</svg>
