<?xml version="1.0" encoding="utf-8"?>
<!-- Generator: Adobe Illustrator 26.5.0, SVG Export Plug-In . SVG Version: 6.00 Build 0)  -->
<svg version="1.1" id="Слой_1" xmlns="http://www.w3.org/2000/svg" xmlns:xlink="http://www.w3.org/1999/xlink" x="0px" y="0px"
	 viewBox="0 0 1664.5 857.2" style="enable-background:new 0 0 1664.5 857.2;" xml:space="preserve">
<style type="text/css">
	.st0{fill:#2BB3BA;}
	.st1{fill:none;stroke:#2BB3BA;stroke-width:39.4186;stroke-miterlimit:10;}
</style>
<g>
	<g>
		<path class="st0" d="M623.36,641.31h13.15v93.73h-13.15V641.31z M632.26,722.53h21.21c6.92,0,12.28-1.79,16.08-5.38
			c3.8-3.59,5.71-8.65,5.71-15.18v-27.59c0-6.53-1.9-11.59-5.71-15.18c-3.8-3.59-9.17-5.38-16.08-5.38h-21.21v-12.51h20.82
			c7.52,0,13.95,1.31,19.27,3.93c5.33,2.62,9.39,6.45,12.18,11.47c2.79,5.03,4.19,11.09,4.19,18.18v26.56
			c0,7.09-1.4,13.15-4.19,18.18c-2.79,5.03-6.87,8.85-12.22,11.47c-5.35,2.62-11.79,3.93-19.31,3.93h-20.76V722.53z"/>
		<path class="st0" d="M735.53,641.31h11.22l34.55,93.73h-14.18l-25.98-75.62l-25.98,75.62h-14.18L735.53,641.31z M716.9,701.97
			h49.31v12.51H716.9V701.97z"/>
		<path class="st0" d="M795.48,641.31h11.93l45.83,72.46l-1.55,1.68v-74.13h13.02v93.67h-12.05l-45.7-71.36l1.55-1.68v73.04h-13.02
			V641.31z"/>
		<path class="st0" d="M901.49,731.68c-4.92-2.88-8.73-6.96-11.44-12.25c-2.71-5.29-4.06-11.41-4.06-18.37v-25.72
			c0-6.96,1.35-13.09,4.06-18.37c2.71-5.29,6.52-9.38,11.44-12.28s10.63-4.35,17.12-4.35c5.37,0,10.31,1.15,14.83,3.45
			c4.51,2.3,8.28,5.55,11.31,9.77c3.03,4.21,5.08,9.09,6.16,14.63h-13.47c-0.82-2.92-2.18-5.53-4.09-7.83s-4.16-4.07-6.74-5.32
			c-2.58-1.25-5.24-1.87-7.99-1.87c-3.83,0-7.18,0.92-10.06,2.77c-2.88,1.85-5.11,4.44-6.7,7.77c-1.59,3.33-2.38,7.21-2.38,11.64
			v25.72c0,4.38,0.79,8.25,2.38,11.6c1.59,3.35,3.83,5.94,6.7,7.77c2.88,1.83,6.23,2.74,10.06,2.74c2.79,0,5.47-0.58,8.03-1.74
			s4.79-2.88,6.7-5.16c1.91-2.28,3.28-4.99,4.09-8.12h13.47c-1.07,5.54-3.14,10.42-6.19,14.63c-3.05,4.21-6.83,7.47-11.35,9.77
			c-4.51,2.3-9.43,3.45-14.76,3.45C912.12,736,906.41,734.56,901.49,731.68z"/>
		<path class="st0" d="M969.6,641.31h13.15v93.73H969.6V641.31z M975.98,641.31h53.83v12.51h-53.83V641.31z M975.98,682.24h46.74
			v12.51h-46.74V682.24z M975.98,722.53h53.83v12.51h-53.83V722.53z"/>
		<path class="st0" d="M1099.3,734.71c-4.04-0.86-7.81-2.15-11.31-3.87c-3.5-1.72-6.78-3.87-9.83-6.45l8.19-10.06
			c3.57,3.09,7.5,5.41,11.8,6.96c4.3,1.55,8.96,2.32,13.99,2.32c6.79,0,12.05-1.26,15.79-3.77c3.74-2.51,5.61-6.07,5.61-10.67v-0.06
			c0-3.27-0.85-5.86-2.55-7.77c-1.7-1.91-3.89-3.33-6.58-4.25c-2.69-0.92-6.16-1.77-10.41-2.55c-0.13-0.04-0.27-0.06-0.42-0.06
			c-0.15,0-0.29-0.02-0.42-0.06l-0.97-0.19c-6.28-1.07-11.38-2.29-15.31-3.64c-3.93-1.35-7.29-3.83-10.09-7.41
			c-2.79-3.59-4.19-8.69-4.19-15.31v-0.06c0-5.8,1.3-10.75,3.9-14.86c2.6-4.1,6.39-7.23,11.38-9.38c4.99-2.15,10.98-3.22,17.99-3.22
			c3.35,0,6.65,0.37,9.9,1.1c3.24,0.73,6.45,1.82,9.6,3.26c3.16,1.44,6.26,3.26,9.32,5.45l-7.48,10.44
			c-3.57-2.62-7.12-4.59-10.67-5.9c-3.55-1.31-7.1-1.97-10.67-1.97c-6.4,0-11.38,1.28-14.92,3.84c-3.55,2.56-5.32,6.18-5.32,10.86
			v0.06c0,3.22,0.91,5.76,2.74,7.61c1.83,1.85,4.1,3.21,6.83,4.09s6.52,1.79,11.38,2.74c0.17,0.04,0.33,0.08,0.48,0.1
			c0.15,0.02,0.31,0.05,0.48,0.1c0.21,0.04,0.45,0.09,0.71,0.13c0.26,0.04,0.49,0.09,0.71,0.13c5.67,1.16,10.41,2.54,14.21,4.13
			c3.8,1.59,6.98,4.16,9.54,7.7c2.56,3.55,3.83,8.39,3.83,14.54v0.13c0,5.72-1.35,10.6-4.06,14.67c-2.71,4.06-6.63,7.16-11.76,9.28
			c-5.14,2.13-11.34,3.19-18.6,3.19C1107.61,736,1103.34,735.57,1099.3,734.71z"/>
		<path class="st0" d="M1152.35,641.31h66.14v12.51h-66.14V641.31z M1178.85,648.98H1192v86.06h-13.15V648.98z"/>
		<path class="st0" d="M1242.63,731.91c-4.92-2.73-8.67-6.7-11.25-11.92c-2.58-5.22-3.87-11.51-3.87-18.86v-59.82h13.15v60.27
			c0,6.83,1.72,12.12,5.16,15.86c3.44,3.74,8.29,5.61,14.57,5.61c6.32,0,11.21-1.87,14.67-5.61c3.46-3.74,5.19-9.02,5.19-15.86
			v-60.27h13.15v59.82c0,7.35-1.29,13.63-3.87,18.86c-2.58,5.22-6.34,9.2-11.28,11.92c-4.94,2.73-10.89,4.09-17.86,4.09
			C1253.47,736,1247.55,734.64,1242.63,731.91z"/>
		<path class="st0" d="M1315.32,641.31h13.15v93.73h-13.15V641.31z M1324.21,722.53h21.21c6.92,0,12.28-1.79,16.08-5.38
			c3.8-3.59,5.71-8.65,5.71-15.18v-27.59c0-6.53-1.9-11.59-5.71-15.18c-3.8-3.59-9.17-5.38-16.08-5.38h-21.21v-12.51h20.82
			c7.52,0,13.95,1.31,19.27,3.93c5.33,2.62,9.39,6.45,12.18,11.47c2.79,5.03,4.19,11.09,4.19,18.18v26.56
			c0,7.09-1.4,13.15-4.19,18.18c-2.79,5.03-6.87,8.85-12.22,11.47c-5.35,2.62-11.79,3.93-19.31,3.93h-20.76V722.53z"/>
		<path class="st0" d="M1415.11,735.04h-13.15v-93.73h13.15V735.04z"/>
		<path class="st0" d="M1452.04,731.72c-4.99-2.86-8.84-6.9-11.57-12.12c-2.73-5.22-4.09-11.27-4.09-18.15v-26.56
			c0-6.88,1.36-12.92,4.09-18.15c2.73-5.22,6.59-9.26,11.57-12.12c4.99-2.86,10.74-4.29,17.28-4.29c6.53,0,12.29,1.43,17.28,4.29
			c4.98,2.86,8.84,6.9,11.57,12.12c2.73,5.22,4.09,11.27,4.09,18.15v26.56c0,6.88-1.37,12.93-4.09,18.15
			c-2.73,5.22-6.59,9.26-11.57,12.12c-4.99,2.86-10.74,4.29-17.28,4.29C1462.79,736,1457.03,734.58,1452.04,731.72z M1479.54,720.44
			c2.94-1.74,5.22-4.21,6.83-7.41c1.61-3.2,2.42-6.91,2.42-11.12v-27.46c0-4.21-0.81-7.92-2.42-11.12c-1.61-3.2-3.89-5.67-6.83-7.41
			c-2.94-1.74-6.35-2.61-10.22-2.61s-7.27,0.87-10.22,2.61s-5.22,4.21-6.83,7.41c-1.61,3.2-2.42,6.91-2.42,11.12v27.46
			c0,4.21,0.81,7.92,2.42,11.12c1.61,3.2,3.89,5.67,6.83,7.41c2.94,1.74,6.35,2.61,10.22,2.61S1476.59,722.18,1479.54,720.44z"/>
	</g>
</g>
<g>
	<g>
		<line class="st1" x1="574.84" y1="381.06" x2="950.03" y2="381.06"/>
		<line class="st1" x1="818.8" y1="381.06" x2="818.8" y2="559.25"/>
	</g>
	<g>
		<path class="st1" d="M1137.03,380.53h-116.17c-18.49,0-33.47,14.99-33.47,33.47v95.02c0,18.49,14.99,33.47,33.47,33.47h119.07"/>
		<line class="st1" x1="987.39" y1="461.51" x2="1102.77" y2="461.51"/>
	</g>
	<g>
		<path class="st1" d="M1483.85,145.4h-116.17c-18.49,0-33.47,14.99-33.47,33.47v95.02c0,18.49,14.99,33.47,33.47,33.47h119.07"/>
		<line class="st1" x1="1334.2" y1="226.38" x2="1449.59" y2="226.38"/>
	</g>
	<path class="st1" d="M540.39,381.06H194.56c-21.08,0-38.18,17.09-38.18,38.18v0c0,21.08,17.09,38.18,38.18,38.18h505.35
		c23.49,0,42.54,19.05,42.54,42.54v0c0,23.49-19.05,42.54-42.54,42.54l-560.84,0"/>
	<path class="st1" d="M1187.44,569.15V381.06h234.07c25.01,0,45.28,20.27,45.28,45.28v0c0,24.74-19.86,44.9-44.6,45.27l-234.74,3.5"
		/>
	<path class="st1" d="M548.77,313.54l0.01-149.91c0-14.36,39.84-22.98,69.88-15.12l571.01,149.47c30.03,7.86,69.88-0.76,69.88-15.12
		l-0.01-150.42"/>
	<path class="st1" d="M387.11,150.13H233.82c-43.42,0-78.62,35.2-78.62,78.62v0c0,43.42,35.2,78.62,78.62,78.62h153.29
		c43.42,0,78.62-35.2,78.62-78.62v0C465.72,185.33,430.52,150.13,387.11,150.13z"/>
</g>
</svg>
